<?xml version="1.0" standalone="no"?>
<!DOCTYPE svg PUBLIC "-//W3C//DTD SVG 20010904//EN"
 "http://www.w3.org/TR/2001/REC-SVG-20010904/DTD/svg10.dtd">
<svg version="1.0" xmlns="http://www.w3.org/2000/svg"
 width="260.000000pt" height="260.000000pt" viewBox="0 0 260.000000 260.000000"
 preserveAspectRatio="xMidYMid meet">
<metadata>
Created by potrace 1.11, written by Peter Selinger 2001-2013
</metadata>
<g transform="translate(0.000000,260.000000) scale(0.100000,-0.100000)"
fill="#000000" stroke="none">
<path d="M2209 2584 c-79 -24 -189 -140 -189 -199 0 -8 -8 -16 -17 -16 -10 -1
-31 -2 -48 -4 -16 -1 -100 -5 -185 -9 -85 -4 -177 -9 -205 -11 -27 -2 -106 -6
-175 -9 -116 -5 -216 -10 -415 -21 -68 -4 -298 -15 -374 -19 -17 -1 -29 8 -42
33 -36 67 -113 129 -183 148 -27 8 -124 8 -156 0 -45 -10 -89 -37 -135 -84
-25 -24 -43 -49 -39 -54 3 -5 1 -9 -5 -9 -17 0 -40 -103 -37 -165 7 -143 122
-272 259 -288 21 -3 40 -7 41 -8 2 -2 46 -98 99 -214 52 -115 169 -372 260
-570 90 -198 179 -391 197 -430 17 -38 37 -82 45 -97 12 -24 10 -30 -11 -59
-13 -18 -21 -36 -18 -40 3 -5 1 -9 -4 -9 -13 0 -35 -56 -27 -69 3 -6 1 -11 -5
-11 -19 0 -5 -137 19 -193 28 -65 96 -130 164 -155 64 -24 161 -23 220 2 78
34 157 129 171 206 3 19 8 46 11 59 6 31 -13 117 -35 162 l-18 35 150 255 c83
140 162 274 177 299 48 84 105 180 331 563 l225 382 58 3 c74 4 133 29 190 83
66 63 91 125 91 224 0 93 -22 150 -83 213 -72 76 -199 108 -302 76z m-158
-455 c10 -15 19 -33 19 -40 0 -7 -32 -67 -72 -133 -39 -67 -144 -245 -233
-396 -89 -151 -177 -300 -195 -330 -18 -30 -41 -68 -50 -85 -10 -16 -46 -79
-81 -138 -35 -60 -72 -123 -83 -140 -73 -127 -151 -253 -159 -259 -6 -3 -20
-3 -32 2 -12 5 -30 8 -40 7 -9 -1 -21 5 -26 13 -5 8 -74 157 -153 330 -79 173
-154 340 -168 370 -146 318 -197 429 -234 509 -24 51 -44 99 -44 105 0 6 10
24 22 39 13 16 32 45 44 65 17 30 26 37 55 38 77 2 329 15 394 19 39 3 117 7
175 10 208 9 356 17 400 20 25 2 122 7 215 11 94 3 172 8 174 10 13 12 56 -4
72 -27z"/>
</g>
</svg>
