<?xml version="1.0" standalone="no"?>
<!DOCTYPE svg PUBLIC "-//W3C//DTD SVG 20010904//EN"
 "http://www.w3.org/TR/2001/REC-SVG-20010904/DTD/svg10.dtd">
<svg version="1.0" xmlns="http://www.w3.org/2000/svg"
 width="80.000000pt" height="80.000000pt" viewBox="0 0 80.000000 80.000000"
 preserveAspectRatio="xMidYMid meet">
<metadata>
Created by potrace 1.11, written by Peter Selinger 2001-2013
</metadata>
<g transform="translate(0.000000,80.000000) scale(0.100000,-0.100000)"
fill="#000000" stroke="none">
<path d="M38 780 c-29 -22 -42 -64 -33 -101 7 -28 46 -60 76 -62 13 -1 32 -24
61 -77 52 -96 94 -172 157 -289 30 -56 49 -102 46 -112 -15 -46 -13 -65 8 -96
34 -50 108 -55 146 -9 17 21 21 71 8 106 -10 25 -1 47 83 211 94 187 107 209
118 207 25 -3 44 5 66 28 49 54 10 154 -60 154 -29 0 -84 -26 -84 -40 0 -4
-12 -7 -27 -5 -37 4 -140 13 -238 21 -44 4 -89 8 -100 9 -11 1 -34 3 -51 4
-21 1 -35 8 -44 25 -23 44 -92 58 -132 26z m267 -124 c145 -11 231 -19 245
-21 8 -2 27 -4 41 -4 17 -1 30 -9 36 -23 9 -20 -4 -52 -90 -218 -97 -190 -115
-217 -128 -202 -26 28 -248 453 -243 466 4 10 16 14 42 11 20 -3 64 -7 97 -9z"/>
</g>
</svg>
