<?xml version="1.0" standalone="no"?>
<!DOCTYPE svg PUBLIC "-//W3C//DTD SVG 20010904//EN"
 "http://www.w3.org/TR/2001/REC-SVG-20010904/DTD/svg10.dtd">
<svg version="1.0" xmlns="http://www.w3.org/2000/svg"
 width="260.000000pt" height="260.000000pt" viewBox="0 0 260.000000 260.000000"
 preserveAspectRatio="xMidYMid meet">
<metadata>
Created by potrace 1.11, written by Peter Selinger 2001-2013
</metadata>
<g transform="translate(0.000000,260.000000) scale(0.100000,-0.100000)"
fill="#000000" stroke="none">
<path d="M236 2581 c-4 -6 -11 -9 -16 -6 -12 7 -97 -39 -131 -72 -15 -13 -39
-50 -55 -81 -39 -77 -41 -182 -4 -257 52 -108 151 -170 277 -174 16 -1 31 -18
58 -68 21 -38 102 -186 181 -330 79 -144 182 -333 230 -420 48 -87 151 -276
230 -420 l144 -262 -27 -52 c-19 -35 -29 -72 -31 -115 -4 -63 14 -154 31 -154
4 0 6 -4 3 -9 -8 -12 83 -113 95 -105 5 3 9 1 9 -4 0 -17 78 -44 137 -48 59
-3 163 21 163 38 0 5 4 7 8 4 13 -8 90 70 113 115 42 82 43 185 4 265 -15 30
-34 61 -43 70 -18 18 -19 15 274 584 58 113 164 320 236 460 72 140 131 256
132 257 1 1 32 4 70 7 40 3 73 11 78 18 4 7 8 10 8 5 0 -15 78 33 108 68 38
42 75 112 67 125 -3 5 -1 11 5 15 18 11 4 141 -21 192 -37 77 -113 140 -192
160 -73 18 -196 -2 -243 -39 -31 -25 -94 -92 -94 -101 0 -4 -3 -6 -7 -4 -5 3
-53 8 -108 12 -55 3 -113 8 -130 10 -16 2 -70 7 -119 10 -49 4 -98 8 -110 10
-11 2 -66 7 -121 11 -55 4 -113 8 -130 9 -16 2 -68 6 -115 10 -47 3 -101 8
-120 10 -19 2 -73 6 -120 10 -47 3 -101 8 -120 10 -57 6 -203 18 -227 18 -17
1 -27 12 -39 42 -42 105 -140 174 -263 183 -45 3 -71 1 -75 -7z m519 -436 c22
-2 81 -7 130 -10 50 -3 106 -8 125 -10 19 -3 64 -7 100 -10 101 -7 302 -24
370 -30 25 -2 81 -7 125 -10 44 -4 96 -8 115 -10 19 -2 76 -7 125 -10 50 -4
101 -9 115 -10 14 -2 31 -4 38 -4 6 -1 12 -7 12 -15 0 -7 14 -40 31 -73 l31
-61 -112 -218 c-62 -121 -141 -273 -175 -339 -34 -66 -127 -246 -205 -400
-192 -375 -169 -338 -214 -338 -42 0 -35 -9 -128 163 -17 30 -120 219 -231
420 -110 201 -216 394 -235 430 -19 36 -52 94 -72 130 -20 36 -59 106 -85 155
-27 50 -60 111 -73 136 l-25 45 28 43 28 42 71 -6 c39 -3 89 -8 111 -10z"/>
</g>
</svg>
