<?xml version="1.0" standalone="no"?>
<!DOCTYPE svg PUBLIC "-//W3C//DTD SVG 20010904//EN"
 "http://www.w3.org/TR/2001/REC-SVG-20010904/DTD/svg10.dtd">
<svg version="1.0" xmlns="http://www.w3.org/2000/svg"
 width="228.000000pt" height="228.000000pt" viewBox="0 0 228.000000 228.000000"
 preserveAspectRatio="xMidYMid meet">
<metadata>
Created by potrace 1.11, written by Peter Selinger 2001-2013
</metadata>
<g transform="translate(0.000000,228.000000) scale(0.100000,-0.100000)"
fill="#000000" stroke="none">
<path d="M198 2271 c-110 -36 -187 -133 -193 -244 -6 -119 48 -210 151 -254
l42 -17 17 -106 c10 -58 19 -116 21 -130 3 -14 11 -61 19 -105 8 -44 17 -96
20 -115 3 -19 10 -60 15 -90 5 -30 12 -70 15 -87 7 -42 14 -82 19 -109 2 -12
7 -39 10 -60 4 -22 18 -106 32 -189 14 -82 27 -162 29 -177 3 -16 7 -41 10
-57 4 -25 -3 -37 -48 -83 -35 -36 -57 -68 -66 -98 -18 -61 -24 -127 -11 -135
6 -3 8 -11 4 -16 -3 -5 -1 -15 4 -22 6 -7 11 -15 11 -20 2 -22 35 -69 68 -96
75 -62 192 -75 285 -31 111 52 180 199 144 306 -4 14 -1 27 7 35 8 8 94 91
193 184 98 94 228 218 289 276 60 59 128 123 150 144 22 20 112 106 200 190
274 261 267 256 290 249 61 -20 215 -1 215 26 0 6 6 10 14 10 23 0 93 87 110
136 27 80 3 224 -41 241 -7 3 -11 8 -8 13 6 9 -79 70 -99 70 -8 0 -18 5 -22
11 -4 8 -33 9 -86 6 -90 -7 -130 -26 -191 -92 l-38 -41 -112 24 c-62 12 -125
25 -142 28 -16 3 -68 14 -115 24 -47 10 -99 21 -115 24 -57 10 -730 147 -747
152 -10 3 -18 13 -18 23 0 10 -3 21 -7 25 -5 4 -8 11 -9 14 -2 21 -25 62 -34
62 -5 0 -10 5 -10 11 0 16 -37 47 -83 71 -43 22 -147 32 -189 19z m371 -416
c19 -3 37 -7 40 -9 3 -2 22 -7 41 -10 19 -3 157 -30 305 -61 258 -53 502 -102
555 -111 14 -3 53 -11 88 -19 34 -8 77 -17 95 -20 51 -9 64 -14 65 -28 0 -6 3
-21 7 -32 6 -20 -36 -63 -346 -356 -26 -24 -124 -118 -219 -209 -95 -91 -193
-185 -219 -208 -25 -24 -87 -83 -136 -130 -183 -176 -167 -164 -206 -151 -19
7 -37 14 -41 18 -6 5 -64 327 -84 461 -3 19 -9 58 -15 85 -17 87 -23 127 -35
210 -3 22 -7 47 -9 55 -2 8 -6 29 -9 45 -3 17 -14 86 -26 155 -12 69 -23 139
-26 155 -2 17 -7 42 -10 57 -4 21 0 29 24 44 16 9 40 30 53 46 18 21 30 27 49
23 14 -2 40 -7 59 -10z"/>
</g>
</svg>
