<svg viewBox="0 0 124.44 144" id="svg2" version="1.1" xmlns="http://www.w3.org/2000/svg"><defs id="defs4"><style type="text/css" id="style6"/></defs><path clip-path="url(#cpMHwxMjQuNDQxfDE0My45OTd8MC4xNDMxMzc=)" id="polyline29" stroke="#f05133" stroke-width="0" fill="#f05133" stroke-linecap="round" stroke-linejoin="round" stroke-miterlimit="10" d="M2.285 37.429v69.37l59.82 34.687 59.821-34.687v-69.37L62.105 2.743 2.285 37.429"/><path d="M112.741 67.322L66.897 21.481a6.763 6.763 0 00-9.564 0l-9.518 9.522 12.074 12.075c2.808-.949 6.025-.314 8.262 1.925a8.035 8.035 0 011.908 8.313l11.639 11.638c2.817-.971 6.064-.342 8.313 1.908a8.048 8.048 0 11-11.383 11.38 8.048 8.048 0 01-1.749-8.751L66.024 58.637v28.565a8.062 8.062 0 012.127 1.521 8.048 8.048 0 010 11.38c-3.143 3.14-8.239 3.14-11.379 0-3.142-3.147-3.142-8.239 0-11.38a8.061 8.061 0 012.636-1.756V58.136a7.983 7.983 0 01-2.636-1.756c-2.38-2.379-2.952-5.873-1.732-8.797L43.137 35.677 11.701 67.11a6.765 6.765 0 000 9.566l45.846 45.843a6.765 6.765 0 009.564 0l45.63-45.631a6.769 6.769 0 000-9.566z" fill="#fff" stroke-linecap="round" stroke-linejoin="round" stroke-miterlimit="10"/><text style="white-space:pre" x="25.457" y="79.175" font-size="24">git</text></svg>