<svg id="Layer_1" data-name="Layer 1" xmlns="http://www.w3.org/2000/svg" viewBox="0 0 735 852"><defs><radialGradient id="New_Gradient_Swatch_1" cx="378.44" cy="632.3" r="442.13" gradientUnits="userSpaceOnUse"><stop offset="0" stop-color="#77e8f9"/><stop offset=".7" stop-color="#2972cb"/><stop offset="1" stop-color="#073fb7"/></radialGradient><linearGradient id="linear-gradient" x1="366.25" y1="-121.65" x2="367.55" y2="341.88" gradientUnits="userSpaceOnUse"><stop offset="0" stop-color="#fff" stop-opacity=".83"/><stop offset=".56" stop-color="#fff" stop-opacity=".37"/><stop offset="1" stop-color="#fff" stop-opacity="0"/></linearGradient><clipPath id="clip-path"><path fill="none" d="M369.5 8.1l358.7 207.1v422.2L369.5 845.8 2.8 637.4V215.2L369.5 8.1z"/></clipPath><style>.cls-5{fill:#fff}</style></defs><g clip-path="url(#clip-path)"><circle cx="365.5" cy="438.2" r="442.1" fill="url(#New_Gradient_Swatch_1)"/><ellipse cx="366.9" cy="106.5" rx="315.2" ry="234.6" opacity=".25" fill="url(#linear-gradient)"/></g><path class="cls-5" d="M705.6 197L427.8 36.6 367.5 1.7l-60.3 34.9L29.4 197 .1 213.9v424.2L29.4 655l281.2 162.4 56.9 32.8 56.9-32.8L705.6 655l29.3-16.9V213.9zm0 425.3L367.5 817.4 29.4 622.2V231.8L367.5 36.6l338.1 195.2v390.4z"/><path d="M182.4 633.9l.9-.9h-.3z" fill="#e6b35a"/><path class="cls-5" d="M299.3 459.8a42 42 0 0022.1 6.3c12.7 0 20.1-6.7 20.1-16.4s-5.1-14.1-18.1-18.9c-15.7-5.7-25.3-14-25.3-27.3 0-15 12.4-26.1 31-26.1 9.7 0 16.9 2.3 21.1 4.7l-3.4 10.1a35.5 35.5 0 00-18.1-4.6c-13.1 0-18.1 7.8-18.1 14.4 0 9 5.8 13.4 19.1 18.5 16.2 6.3 24.3 14.1 24.3 28.2s-10.8 27.8-33.5 27.8c-9.3 0-19.4-2.8-24.5-6.3zm86-70.4v16.5h17.9v9.5h-17.9v37.2c0 8.5 2.4 13.4 9.4 13.4a23.4 23.4 0 007.3-.9l.6 9.5a34.2 34.2 0 01-11.1 1.7c-5.8 0-10.5-2-13.5-5.3s-4.8-10-4.8-18.1v-37.4h-10.8V406h10.7v-12.9zm89.7 66.5c0 7.3.1 13.5.6 18.9h-11.1l-.7-11.2h-.3a25.7 25.7 0 01-22.8 12.8c-10.8 0-23.8-6.1-23.8-30.2v-40.3h12.5v38c0 13.1 4.1 22.1 15.4 22.1 8.4 0 14.2-5.8 16.5-11.5a17.2 17.2 0 001.1-6.4v-42.2H475v50zm80.2-82.1v83.3c0 6.1.3 13.1.6 17.8h-11.1l-.6-12h-.4c-3.7 7.7-12 13.5-23.2 13.5-16.7 0-29.6-14.1-29.6-35-.1-22.9 14.2-36.9 30.9-36.9 10.7 0 17.7 5 20.8 10.4h.3v-41.1h12.4zM542.8 434a22.1 22.1 0 00-.6-5.3 18.5 18.5 0 00-18.1-14.4c-13 0-20.6 11.4-20.6 26.5s7 25.5 20.4 25.5c8.4 0 16.1-5.7 18.4-15a21.8 21.8 0 00.6-5.4V434zm47.3-47.4c0 4.3-3 7.7-8 7.7a7.4 7.4 0 01-7.5-7.7 7.6 7.6 0 017.8-7.8 7.5 7.5 0 017.7 7.8zm-14 88.3v-69h12.5v68.9h-12.5zm95.7-35.1c0 25.5-17.8 36.6-34.3 36.6-18.5 0-33-13.7-33-35.5s15.2-36.5 34.2-36.5 33.1 14.5 33.1 35.4zm-54.5.7c0 15.1 8.5 26.5 20.8 26.5s20.9-11.2 20.9-26.7c0-11.7-5.8-26.3-20.6-26.3s-21.1 13.6-21.1 26.5zM169.5 320.9a107.1 107.1 0 10107 107.1 107.1 107.1 0 00-107-107.1zm48.2 150.3H200l-29.4-44H155v35h15.3v9h-38.6v-9H145v-77.6l-13.3-1.6v-8.5a63.4 63.4 0 0014.8 1.9c8.2 0 16.6-1.9 24.8-1.9 16 0 30.8 7.3 30.8 25 0 13.7-8.2 22.4-21 26.1l24.8 36.6h11.6v9z"/><path class="cls-5" d="M191.7 400.6c0-12.3-8.9-17.1-20.2-17.1a151.4 151.4 0 00-16.6 1.1v33.9l8.4.2c20.5.3 28.4-7.7 28.4-18.1zm473.1-21.5a7.8 7.8 0 107.8 7.8 7.8 7.8 0 00-7.8-7.8zm6.5 7.8a6.5 6.5 0 11-6.5-6.5 6.5 6.5 0 016.5 6.4z"/><path class="cls-5" d="M667.6 390l-1.9-2.8a2.3 2.3 0 001.7-2.3c0-1.7-1.4-2.3-2.8-2.3h-2.1l-1.2-.2h-.3v1.1h1.1v6.5H661v1.1h3.6V390h-1.3v-2.6h1.1l2.4 3.7h1.8V390h-1.1zm-1.5-5a1.1 1.1 0 01-.5 1 2.8 2.8 0 01-1.7.4h-.6v-2.5h1.2a1.3 1.3 0 011.6 1.1zM365.5 798l4.5 4.5 2.7 2.9h.1c-.4-1.2-.7-2.5-1-3.9l-1.4-6.3 1.6-.9 4.7 4.3 2.9 2.9h.1a36.6 36.6 0 01-1.2-3.9l-1.6-6.1 1.9-1.1 2.7 12.4-1.7 1-4.5-4.1a40.7 40.7 0 01-2.9-2.9 35.6 35.6 0 011.1 4l1.2 5.9-1.7 1-9.2-8.6zm16.2-9.4l4.5 4.5 2.7 2.9h.1c-.4-1.2-.7-2.5-1-3.9l-1.4-6.3 1.6-.9 4.7 4.3 2.9 2.9h.1a36.3 36.3 0 01-1.2-3.9L393 782l1.9-1.1 2.7 12.4-1.7 1-4.5-4.1a40.5 40.5 0 01-2.9-2.9 35.3 35.3 0 011.1 4l1.2 5.9-1.7 1-9.2-8.6zm16.1-9.4l4.5 4.5 2.7 2.9h.1c-.4-1.2-.7-2.5-1-3.9l-1.4-6.3 1.6-.9 4.7 4.3 2.9 2.9h.1a36.4 36.4 0 01-1.2-3.9l-1.6-6.1 1.9-1.1 2.7 12.4-1.7 1-4.5-4.1a40.7 40.7 0 01-2.9-2.9 35.2 35.2 0 011.1 4l1.2 5.9-1.7 1-9.2-8.6zm21.4 1.9a1.6 1.6 0 11.5-2.1 1.5 1.5 0 01-.5 2.1zm-.7-9.6l-2-3.2 1.7-1 1.3 2h.1a3.6 3.6 0 011.6-4l.6-.2 1 1.8-.7.3a3.1 3.1 0 00-1.1 3.9l.4.9 3.2 5.6-1.9 1.1zm9.9 1.3a5.8 5.8 0 002.9-.7c1.4-.8 1.6-1.9 1.1-2.7s-1.4-1.1-3.1-.8-3.8-.1-4.5-1.4-.4-3.9 1.8-5.2a6 6 0 012.9-.8l.3 1.7a4.7 4.7 0 00-2.5.6 1.8 1.8 0 00-.9 2.4c.5.9 1.4.9 3 .6s3.7 0 4.6 1.6.4 4-2.1 5.4a6.9 6.9 0 01-3.4 1zm4.7-17.5l1.5 2.5 2.7-1.6.8 1.4-2.7 1.6 3.3 5.6c.8 1.3 1.6 1.8 2.6 1.2l1-.8.9 1.4a5.3 5.3 0 01-1.5 1.3 3.1 3.1 0 01-2.5.4 4.5 4.5 0 01-2.3-2.3l-3.3-5.7-1.6.9-.8-1.4 1.6-.9-1.1-1.9zm19.5 2.2l1.7 2.8-1.7 1-1.1-1.6a4.6 4.6 0 01-2.3 4c-1.6 1-4.1 1.2-6.3-2.5l-3.6-6.1 1.9-1.1 3.4 5.8c1.2 2 2.5 3 4.3 2a3.2 3.2 0 001.5-3.2 3.2 3.2 0 00-.4-1.1l-3.7-6.4 1.9-1.1zm4.9-19.5l7.4 12.6 1.7 2.7-1.7 1-1.1-1.8a4.5 4.5 0 01-2.4 4.1c-2.5 1.5-5.7.5-7.6-2.7s-1.1-6.9 1.4-8.3a4 4 0 014.1-.2l-3.6-6.2zm3.4 10.2l-.6-.7a3.2 3.2 0 00-4-.6c-2 1.1-2.1 3.6-.8 5.9s3.3 3.3 5.3 2.1a3.3 3.3 0 001.5-3.9 3.8 3.8 0 00-.4-.9zm3-11.4a1.4 1.4 0 01-2.4 1.4 1.3 1.3 0 01.5-1.9 1.3 1.3 0 011.9.5zm5.7 14.6l-6.1-10.4 1.9-1.1 6.1 10.5zm11.4-13.7c2.3 3.9.6 7.1-2 8.6s-6.2.8-8.1-2.5-.9-6.9 2-8.6 6.2-.7 8.1 2.5zm-8.2 4.9c1.3 2.3 3.7 3.2 5.5 2.2s2.2-3.6.8-5.9-3.2-3.5-5.5-2.2-2 3.9-.8 5.9zm14.1-.9a1.6 1.6 0 11.5-2.1 1.5 1.5 0 01-.5 2.1zm10.8-7.1a8 8 0 01-2.6 2.4c-3.2 1.8-6.5.9-8.3-2.3a6.1 6.1 0 012.4-8.8 7.3 7.3 0 012.9-1l.4 1.7a5.1 5.1 0 00-2.5.8c-2.4 1.4-2.7 3.9-1.4 6.1s3.8 3 5.9 1.8a6.2 6.2 0 002-1.9zm8.6-11.7c2.3 3.9.6 7.1-2 8.6s-6.2.8-8.1-2.5-.9-6.9 2-8.6 6.3-.7 8.1 2.5zm-8.2 4.9c1.3 2.3 3.7 3.2 5.5 2.2s2.2-3.6.8-5.9-3.2-3.5-5.5-2.2-1.9 4-.8 6zm9.3-8.6l-1.7-2.8 1.7-1 1.1 1.6h.1a4.2 4.2 0 012.2-3.8 3.6 3.6 0 014.2.4 5 5 0 01.4-2 4.1 4.1 0 011.9-2.1c1.4-.8 4-1.1 6.1 2.5l3.6 6.2-1.9 1.1-3.4-5.9c-1.2-2-2.6-2.8-4.1-1.9a2.8 2.8 0 00-1.2 3 3.6 3.6 0 00.4 1l3.8 6.5-1.9 1.1-3.6-6.3c-1-1.7-2.4-2.4-3.9-1.6a3 3 0 00-1.2 3.3 3.1 3.1 0 00.4 1l3.7 6.3-1.9 1.1z"/></svg>